<svg width="50" height="50" viewBox="0 0 50 50" fill="none" xmlns="http://www.w3.org/2000/svg">
<circle cx="25" cy="25" r="25" fill="#767676"/>
<path d="M33.9119 13.543H16.0878C14.6815 13.543 13.5415 14.683 13.5415 16.0893V33.9133C13.5415 35.3196 14.6815 36.4596 16.0878 36.4596H33.9119C35.3182 36.4596 36.4582 35.3196 36.4582 33.9133V16.0893C36.4582 14.683 35.3182 13.543 33.9119 13.543Z" stroke="white" stroke-width="1.5" stroke-linecap="round" stroke-linejoin="round"/>
<path d="M20.544 22.4542C21.5987 22.4542 22.4537 21.5992 22.4537 20.5445C22.4537 19.4898 21.5987 18.6348 20.544 18.6348C19.4893 18.6348 18.6343 19.4898 18.6343 20.5445C18.6343 21.5992 19.4893 22.4542 20.544 22.4542Z" stroke="white" stroke-width="1.5" stroke-linecap="round" stroke-linejoin="round"/>
<path d="M36.4583 28.8208L30.0925 22.4551L16.0879 36.4597" stroke="white" stroke-width="1.5" stroke-linecap="round" stroke-linejoin="round"/>
</svg>
